<svg width="190" height="60" viewBox="0 0 190 60" fill="none" xmlns="http://www.w3.org/2000/svg">
<path d="M44.582 28.426C44.7698 28.4144 44.9553 28.3771 45.134 28.3151V29.7263C44.7564 29.8745 44.3566 29.9496 43.9538 29.948C43.6117 29.9839 43.2676 29.9061 42.9692 29.7255C42.6707 29.5448 42.4327 29.2703 42.2882 28.94C41.3994 29.6974 40.2878 30.1005 39.1473 30.0791C37.6339 30.0791 36.2348 29.2021 36.2348 27.3776C36.2348 25.1197 38.2145 24.4241 39.9468 24.4241C40.6765 24.4355 41.4034 24.5233 42.1169 24.6862V24.3737C42.1169 23.275 41.3554 22.4988 39.9277 22.4988C38.894 22.5023 37.8726 22.7358 36.9296 23.1843V21.3699C37.9559 20.9951 39.0325 20.7977 40.1181 20.7852C42.4785 20.7852 43.9253 21.9747 43.9253 24.6459V27.8111C43.912 27.962 43.9555 28.1123 44.0465 28.2294C44.1374 28.3465 44.2683 28.4207 44.4107 28.436C44.4679 28.4427 44.5258 28.4393 44.582 28.426ZM38.1479 27.2163C38.177 27.5946 38.3467 27.9451 38.6198 28.1908C38.8929 28.4366 39.247 28.5574 39.6041 28.5268H39.7088C40.6057 28.5405 41.4713 28.1782 42.1169 27.5187V25.9966C41.522 25.8626 40.9165 25.7883 40.3084 25.7749C39.2615 25.7749 38.1479 26.1277 38.1479 27.2365V27.2163Z" fill="white"/>
<path d="M50.5022 20.7651C51.4002 20.7443 52.2873 20.9774 53.072 21.4404V23.2448C52.3925 22.7578 51.5891 22.5011 50.7687 22.5089C50.0431 22.4476 49.3241 22.6933 48.7693 23.1922C48.2145 23.6912 47.869 24.4027 47.8085 25.1709C47.7481 25.9391 47.9776 26.7014 48.4468 27.2907C48.916 27.88 49.5867 28.2484 50.3118 28.3151C50.4639 28.3252 50.6165 28.3252 50.7687 28.3151C51.6191 28.315 52.4551 28.0823 53.1957 27.6397V29.4541C52.3309 29.8749 51.387 30.0817 50.4355 30.0589C49.8841 30.1 49.3303 30.0253 48.8062 29.8391C48.282 29.6529 47.7978 29.3589 47.3812 28.974C46.9647 28.589 46.624 28.1207 46.3789 27.5959C46.1337 27.0711 45.9888 26.5002 45.9526 25.916C45.9526 25.7749 45.9526 25.6237 45.9526 25.4826C45.9335 24.882 46.0266 24.2834 46.2264 23.721C46.4263 23.1586 46.729 22.6435 47.1171 22.2052C47.5053 21.767 47.9713 21.4142 48.4885 21.167C49.0057 20.9199 49.5638 20.7833 50.131 20.7651C50.2545 20.7555 50.3786 20.7555 50.5022 20.7651Z" fill="white"/>
<path d="M62.6661 28.426C62.8538 28.4144 63.0394 28.3771 63.2181 28.3151V29.7263C62.8404 29.8745 62.4407 29.9496 62.0379 29.948C61.6958 29.9839 61.3517 29.9061 61.0532 29.7255C60.7548 29.5448 60.5168 29.2703 60.3723 28.94C59.4834 29.6974 58.3719 30.1005 57.2313 30.0791C55.718 30.0791 54.3189 29.2021 54.3189 27.3776C54.3189 25.1197 56.2986 24.4241 58.0308 24.4241C58.7606 24.4355 59.4875 24.5233 60.2009 24.6862V24.3737C60.2009 23.275 59.4395 22.4988 58.0118 22.4988C56.9781 22.5023 55.9567 22.7358 55.0137 23.1843V21.3699C56.04 20.9951 57.1166 20.7977 58.2022 20.7852C60.5626 20.7852 62.0093 21.9747 62.0093 24.6459V27.8111C61.9961 27.962 62.0396 28.1123 62.1305 28.2294C62.2215 28.3465 62.3524 28.4207 62.4948 28.436C62.552 28.4427 62.6099 28.4393 62.6661 28.426ZM56.232 27.2163C56.2611 27.5946 56.4308 27.9451 56.7039 28.1908C56.977 28.4366 57.331 28.5574 57.6882 28.5268H57.7929C58.6897 28.5405 59.5553 28.1782 60.2009 27.5187V25.9966C59.6061 25.8626 59.0006 25.7883 58.3925 25.7749C57.336 25.7749 56.232 26.1277 56.232 27.2365V27.2163Z" fill="white"/>
<path d="M72.974 16.9648V29.8271H71.2989V28.426C70.9277 28.9464 70.445 29.3659 69.8906 29.6498C69.3362 29.9338 68.726 30.074 68.1103 30.0589C66.9966 29.9812 65.9524 29.4578 65.1895 28.5949C64.4267 27.732 64.0022 26.5941 64.0022 25.412C64.0022 24.2299 64.4267 23.092 65.1895 22.2291C65.9524 21.3662 66.9966 20.8428 68.1103 20.7651C68.6778 20.7487 69.2416 20.8669 69.7603 21.1111C70.2791 21.3553 70.7397 21.7192 71.1085 22.1763V16.9648H73.0121H72.974ZM68.4435 22.4888C67.7114 22.4888 67.0093 22.7967 66.4917 23.345C65.9741 23.8932 65.6833 24.6367 65.6833 25.412C65.6833 26.1873 65.9741 26.9308 66.4917 27.479C67.0093 28.0272 67.7114 28.3352 68.4435 28.3352C69.0099 28.3399 69.5648 28.166 70.0377 27.8358C70.5105 27.5055 70.88 27.0337 71.099 26.4805V24.3334C70.8734 23.786 70.5021 23.32 70.0305 22.9924C69.5589 22.6648 69.0075 22.4898 68.4435 22.4888Z" fill="white"/>
<path d="M78.9989 20.7651C82.3111 20.7651 83.4532 23.5976 82.9202 26.1478H76.6479C76.8573 27.7304 78.3136 28.3856 79.8364 28.3856C80.7481 28.3862 81.6485 28.1728 82.4729 27.7607V29.4541C81.5292 29.8805 80.5099 30.0868 79.4843 30.0589C76.9335 30.0589 74.7253 28.5167 74.7253 25.412C74.6709 24.2403 75.0569 23.0935 75.799 22.2226C76.5411 21.3517 77.5787 20.8276 78.6848 20.7651H78.9989ZM79.0845 22.398C78.7864 22.3733 78.4865 22.411 78.2021 22.5091C77.9178 22.6071 77.6544 22.7637 77.4272 22.9696C77.2 23.1756 77.0134 23.427 76.8781 23.7095C76.7427 23.9919 76.6613 24.2998 76.6384 24.6157V24.6761H81.2546C81.281 24.4048 81.2565 24.1305 81.1828 23.8692C81.109 23.6078 80.9873 23.3643 80.8247 23.1528C80.662 22.9412 80.4616 22.7657 80.2349 22.6362C80.0082 22.5067 79.7596 22.4257 79.5033 22.398C79.3644 22.3779 79.2235 22.3779 79.0845 22.398Z" fill="white"/>
<path d="M84.8048 21.007H86.4514V22.1057C86.8022 21.6912 87.2302 21.3581 87.7085 21.1273C88.1868 20.8966 88.7051 20.7732 89.2306 20.7651C89.7436 20.7308 90.2557 20.8439 90.7131 21.0923C91.1704 21.3407 91.5559 21.7152 91.829 22.1763C92.2017 21.748 92.6511 21.4026 93.1512 21.1603C93.6513 20.918 94.1919 20.7837 94.7415 20.7651C95.1767 20.7503 95.6099 20.8337 96.0124 21.0095C96.4148 21.1854 96.7775 21.4498 97.0762 21.7853C97.3749 22.1207 97.603 22.5196 97.7453 22.9554C97.8876 23.3912 97.9408 23.854 97.9015 24.3133V29.8271H95.9979V24.3737C96.0405 23.93 95.915 23.4866 95.6491 23.1407C95.3832 22.7948 94.9986 22.5749 94.5797 22.5291H94.3513C93.9544 22.565 93.569 22.6885 93.2198 22.8916C92.8707 23.0947 92.5655 23.373 92.324 23.7085V29.8271H90.4204V24.3737C90.463 23.93 90.3375 23.4866 90.0716 23.1407C89.8057 22.7948 89.4211 22.5749 89.0022 22.5291H88.7738C88.3331 22.5669 87.906 22.7087 87.5239 22.9442C87.1418 23.1797 86.8144 23.5028 86.5656 23.8899V29.8372H84.8048V21.007Z" fill="white"/>
<path d="M106.096 21.007H108L104.098 31.0165C103.146 33.3148 102.013 34.0406 100.747 34.0406C100.379 34.0306 100.012 33.9799 99.6528 33.8894V32.2564C99.9273 32.3449 100.213 32.3891 100.5 32.3874C101.452 32.3874 102.08 31.7121 102.565 30.3714L102.737 29.9279L98.7771 21.0372H100.804L103.66 27.6901L106.096 21.007Z" fill="white"/>
<path d="M38.6999 1.5221V6.56216C39.0514 6.18238 39.4703 5.87999 39.9326 5.67239C40.3949 5.46479 40.8914 5.35609 41.3935 5.35255C41.8191 5.32525 42.2457 5.38705 42.6487 5.53441C43.0518 5.68177 43.4235 5.9118 43.7426 6.21136C44.0617 6.51091 44.3219 6.87413 44.5084 7.28024C44.6949 7.68635 44.804 8.1274 44.8295 8.57819C44.839 8.7023 44.839 8.82703 44.8295 8.95115V14.4045H42.9259V9.20315C42.9563 8.94983 42.9387 8.69261 42.8739 8.44662C42.8091 8.20064 42.6985 7.97087 42.5486 7.77081C42.3988 7.57076 42.2126 7.40447 42.0012 7.28173C41.7897 7.15899 41.5572 7.08227 41.3174 7.05609C41.2192 7.04604 41.1204 7.04604 41.0223 7.05609C40.552 7.08571 40.0954 7.23494 39.6912 7.49112C39.2869 7.74731 38.9469 8.1029 38.6999 8.52779V14.3743H36.7963V1.5221H38.6999Z" fill="white"/>
<path d="M49.9025 2.41923V5.56423H52.9197V7.28793H49.9025V11.32C49.9025 12.4792 50.407 12.8622 51.4825 12.8622C52.0604 12.862 52.6327 12.7421 53.1672 12.5094V14.2029C52.4477 14.4649 51.6912 14.5944 50.9305 14.5859C50.5972 14.6311 50.2589 14.6061 49.9348 14.5124C49.6107 14.4187 49.3073 14.2581 49.042 14.0399C48.7767 13.8216 48.5547 13.5501 48.3888 13.2407C48.2228 12.9314 48.1162 12.5904 48.0751 12.2373C48.0561 12.053 48.0561 11.8671 48.0751 11.6829V7.26777H46.5522V5.54407H48.0465V2.88292L49.9025 2.41923Z" fill="white"/>
<path d="M55.2992 14.3843V5.56423H56.9458V6.66296C57.2966 6.24843 57.7246 5.9153 58.2029 5.68457C58.6812 5.45384 59.1995 5.33049 59.725 5.32231C60.238 5.28809 60.7501 5.40114 61.2075 5.64952C61.6648 5.8979 62.0503 6.27241 62.3234 6.73352C62.6961 6.30524 63.1455 5.95987 63.6456 5.71757C64.1457 5.47528 64.6863 5.3409 65.2359 5.32231C65.6711 5.30757 66.1043 5.39091 66.5068 5.56679C66.9092 5.74267 67.2719 6.00709 67.5706 6.34254C67.8693 6.67799 68.0974 7.07682 68.2397 7.51263C68.382 7.94843 68.4352 8.41127 68.3959 8.87051V14.3843H66.4923V8.93099C66.5174 8.70892 66.5005 8.48378 66.4425 8.26873C66.3845 8.05367 66.2866 7.853 66.1546 7.67845C66.0226 7.5039 65.859 7.35896 65.6735 7.2521C65.488 7.14524 65.2842 7.07861 65.0741 7.05609H64.8457C64.4465 7.09568 64.0597 7.22385 63.7104 7.43226C63.3611 7.64067 63.0572 7.92465 62.8184 8.2657V14.3843H60.9148V8.93099C60.9398 8.70582 60.9216 8.47762 60.8612 8.26009C60.8009 8.04255 60.6997 7.84016 60.5637 7.66507C60.4277 7.48997 60.2597 7.34578 60.0698 7.24113C59.8799 7.13648 59.672 7.07354 59.4585 7.05609H59.2301C58.7894 7.09388 58.3624 7.23572 57.9803 7.47121C57.5982 7.70669 57.2707 8.02984 57.0219 8.4169V14.3743H55.2992V14.3843Z" fill="white"/>
<path d="M72.974 1.51202H71.118V14.3743H72.974V1.51202Z" fill="white"/>
<path d="M14.6957 0H14.5434L0 1.61282V29.8372L14.5434 39L29.0868 29.8372V1.61282L14.6957 0ZM27.1832 28.678L14.5434 36.6413L1.90359 28.678V17.1362L14.4863 25.0693V26.5107L5.85353 21.0675V22.4585L14.5244 27.9723V29.444L5.86305 23.9806V25.3717L14.5339 30.8855L23.2809 25.3414V19.3538L27.1832 16.8842V28.678ZM27.1832 15.4125L23.7092 17.5697L22.1102 18.5777L14.4958 13.7795V15.1706L21.0061 19.2732H20.9395L20.7967 19.3639L19.8449 19.9385L14.4768 16.5516V17.9426L18.7123 20.6139L17.7129 21.3195L14.5148 19.3034V20.6945L16.6183 22.0049L14.4768 23.3657L1.96069 15.4831L14.4958 7.49961L27.1832 15.4125ZM27.1832 14.0114L14.4768 6.04807L1.90359 14.0013V3.41716L14.5529 2.01602L27.1927 3.41716V14.0114H27.1832Z" fill="white"/>
<line x1="62" y1="59.5" x2="146" y2="59.5" stroke="white" stroke-opacity="0.2"/>
<path d="M7.26562 54.293C7.16016 55.1953 6.82617 55.8926 6.26367 56.3848C5.70508 56.873 4.96094 57.1172 4.03125 57.1172C3.02344 57.1172 2.21484 56.7559 1.60547 56.0332C1 55.3105 0.697266 54.3438 0.697266 53.1328V52.3125C0.697266 51.5195 0.837891 50.8223 1.11914 50.2207C1.4043 49.6191 1.80664 49.1582 2.32617 48.8379C2.8457 48.5137 3.44727 48.3516 4.13086 48.3516C5.03711 48.3516 5.76367 48.6055 6.31055 49.1133C6.85742 49.6172 7.17578 50.3164 7.26562 51.2109H6.13477C6.03711 50.5312 5.82422 50.0391 5.49609 49.7344C5.17188 49.4297 4.7168 49.2773 4.13086 49.2773C3.41211 49.2773 2.84766 49.543 2.4375 50.0742C2.03125 50.6055 1.82812 51.3613 1.82812 52.3418V53.168C1.82812 54.0938 2.02148 54.8301 2.4082 55.377C2.79492 55.9238 3.33594 56.1973 4.03125 56.1973C4.65625 56.1973 5.13477 56.0566 5.4668 55.7754C5.80273 55.4902 6.02539 54.9961 6.13477 54.293H7.26562ZM8.58398 56.1152L8.95898 55.6523C9.38086 55.1055 9.62109 54.2852 9.67969 53.1914L9.7793 50.6602H13.8633V56.1152H14.6777V58.8633H13.5938V57H9.16992V58.8633H8.08594L8.0918 56.1152H8.58398ZM9.86719 56.1152H12.7793V51.6621H10.8281L10.7637 53.1738C10.6973 54.4355 10.3984 55.416 9.86719 56.1152ZM18.5098 57.1172C17.6504 57.1172 16.9512 56.8359 16.4121 56.2734C15.873 55.707 15.6035 54.9512 15.6035 54.0059V53.8066C15.6035 53.1777 15.7227 52.6172 15.9609 52.125C16.2031 51.6289 16.5391 51.2422 16.9688 50.9648C17.4023 50.6836 17.8711 50.543 18.375 50.543C19.1992 50.543 19.8398 50.8145 20.2969 51.3574C20.7539 51.9004 20.9824 52.6777 20.9824 53.6895V54.1406H16.6875C16.7031 54.7656 16.8848 55.2715 17.2324 55.6582C17.584 56.041 18.0293 56.2324 18.5684 56.2324C18.9512 56.2324 19.2754 56.1543 19.541 55.998C19.8066 55.8418 20.0391 55.6348 20.2383 55.377L20.9004 55.8926C20.3691 56.709 19.5723 57.1172 18.5098 57.1172ZM18.375 51.4336C17.9375 51.4336 17.5703 51.5938 17.2734 51.9141C16.9766 52.2305 16.793 52.6758 16.7227 53.25H19.8984V53.168C19.8672 52.6172 19.7188 52.1914 19.4531 51.8906C19.1875 51.5859 18.8281 51.4336 18.375 51.4336ZM27.4395 50.6602V57H26.3496V51.5566H24.1934L24.0645 53.9297C23.9941 55.0195 23.8105 55.7988 23.5137 56.2676C23.2207 56.7363 22.7539 56.9805 22.1133 57H21.6797V56.0449L21.9902 56.0215C22.3418 55.9824 22.5938 55.7793 22.7461 55.4121C22.8984 55.0449 22.9961 54.3652 23.0391 53.373L23.1562 50.6602H27.4395ZM33.0938 57C33.0312 56.875 32.9805 56.6523 32.9414 56.332C32.4375 56.8555 31.8359 57.1172 31.1367 57.1172C30.5117 57.1172 29.998 56.9414 29.5957 56.5898C29.1973 56.2344 28.998 55.7852 28.998 55.2422C28.998 54.582 29.248 54.0703 29.748 53.707C30.252 53.3398 30.959 53.1562 31.8691 53.1562H32.9238V52.6582C32.9238 52.2793 32.8105 51.9785 32.584 51.7559C32.3574 51.5293 32.0234 51.416 31.582 51.416C31.1953 51.416 30.8711 51.5137 30.6094 51.709C30.3477 51.9043 30.2168 52.1406 30.2168 52.418H29.127C29.127 52.1016 29.2383 51.7969 29.4609 51.5039C29.6875 51.207 29.9922 50.9727 30.375 50.8008C30.7617 50.6289 31.1855 50.543 31.6465 50.543C32.377 50.543 32.9492 50.7266 33.3633 51.0938C33.7773 51.457 33.9922 51.959 34.0078 52.5996V55.5176C34.0078 56.0996 34.082 56.5625 34.2305 56.9062V57H33.0938ZM31.2949 56.1738C31.6348 56.1738 31.957 56.0859 32.2617 55.9102C32.5664 55.7344 32.7871 55.5059 32.9238 55.2246V53.9238H32.0742C30.7461 53.9238 30.082 54.3125 30.082 55.0898C30.082 55.4297 30.1953 55.6953 30.4219 55.8867C30.6484 56.0781 30.9395 56.1738 31.2949 56.1738ZM40.8867 57H39.8027V54.293H36.8906V57H35.8008V50.6602H36.8906V53.4082H39.8027V50.6602H40.8867V57ZM42.3457 53.7715C42.3457 53.1504 42.4668 52.5918 42.709 52.0957C42.9551 51.5996 43.2949 51.2168 43.7285 50.9473C44.166 50.6777 44.6641 50.543 45.2227 50.543C46.0859 50.543 46.7832 50.8418 47.3145 51.4395C47.8496 52.0371 48.1172 52.832 48.1172 53.8242V53.9004C48.1172 54.5176 47.998 55.0723 47.7598 55.5645C47.5254 56.0527 47.1875 56.4336 46.7461 56.707C46.3086 56.9805 45.8047 57.1172 45.2344 57.1172C44.375 57.1172 43.6777 56.8184 43.1426 56.2207C42.6113 55.623 42.3457 54.832 42.3457 53.8477V53.7715ZM43.4355 53.9004C43.4355 54.6035 43.5977 55.168 43.9219 55.5938C44.25 56.0195 44.6875 56.2324 45.2344 56.2324C45.7852 56.2324 46.2227 56.0176 46.5469 55.5879C46.8711 55.1543 47.0332 54.5488 47.0332 53.7715C47.0332 53.0762 46.8672 52.5137 46.5352 52.084C46.207 51.6504 45.7695 51.4336 45.2227 51.4336C44.6875 51.4336 44.2559 51.6465 43.9277 52.0723C43.5996 52.498 43.4355 53.1074 43.4355 53.9004ZM52.5527 57V50.6602H55.0254C55.8691 50.6602 56.5156 50.8086 56.9648 51.1055C57.418 51.3984 57.6445 51.8301 57.6445 52.4004C57.6445 52.6934 57.5566 52.959 57.3809 53.1973C57.2051 53.4316 56.9453 53.6113 56.6016 53.7363C56.9844 53.8262 57.291 54.002 57.5215 54.2637C57.7559 54.5254 57.873 54.8379 57.873 55.2012C57.873 55.7832 57.6582 56.2285 57.2285 56.5371C56.8027 56.8457 56.1992 57 55.418 57H52.5527ZM53.6367 54.2168V56.127H55.4297C55.8828 56.127 56.2207 56.043 56.4434 55.875C56.6699 55.707 56.7832 55.4707 56.7832 55.166C56.7832 54.5332 56.3184 54.2168 55.3887 54.2168H53.6367ZM53.6367 53.3496H55.0371C56.0527 53.3496 56.5605 53.0527 56.5605 52.459C56.5605 51.8652 56.0801 51.5586 55.1191 51.5391H53.6367V53.3496ZM69.0117 57H67.8809V53.0566H63.5801V57H62.4551V48.4688H63.5801V52.1367H67.8809V48.4688H69.0117V57ZM76.7285 49.3945H73.9863V57H72.8672V49.3945H70.1309V48.4688H76.7285V49.3945ZM79.4473 48.4688L82.2363 55.4297L85.0254 48.4688H86.4844V57H85.3594V53.6777L85.4648 50.0918L82.6641 57H81.8027L79.0078 50.1094L79.1191 53.6777V57H77.9941V48.4688H79.4473ZM89.6016 56.0801H93.6445V57H88.4707V48.4688H89.6016V56.0801ZM102.615 54.7734H99.041L98.2383 57H97.0781L100.336 48.4688H101.32L104.584 57H103.43L102.615 54.7734ZM99.3809 53.8477H102.281L100.828 49.8574L99.3809 53.8477ZM108.105 56.2324C108.492 56.2324 108.83 56.1152 109.119 55.8809C109.408 55.6465 109.568 55.3535 109.6 55.002H110.625C110.605 55.3652 110.48 55.7109 110.25 56.0391C110.02 56.3672 109.711 56.6289 109.324 56.8242C108.941 57.0195 108.535 57.1172 108.105 57.1172C107.242 57.1172 106.555 56.8301 106.043 56.2559C105.535 55.6777 105.281 54.8887 105.281 53.8887V53.707C105.281 53.0898 105.395 52.541 105.621 52.0605C105.848 51.5801 106.172 51.207 106.594 50.9414C107.02 50.6758 107.521 50.543 108.1 50.543C108.811 50.543 109.4 50.7559 109.869 51.1816C110.342 51.6074 110.594 52.1602 110.625 52.8398H109.6C109.568 52.4297 109.412 52.0938 109.131 51.832C108.854 51.5664 108.51 51.4336 108.1 51.4336C107.549 51.4336 107.121 51.6328 106.816 52.0312C106.516 52.4258 106.365 52.998 106.365 53.748V53.9531C106.365 54.6836 106.516 55.2461 106.816 55.6406C107.117 56.0352 107.547 56.2324 108.105 56.2324ZM115.758 57C115.695 56.875 115.645 56.6523 115.605 56.332C115.102 56.8555 114.5 57.1172 113.801 57.1172C113.176 57.1172 112.662 56.9414 112.26 56.5898C111.861 56.2344 111.662 55.7852 111.662 55.2422C111.662 54.582 111.912 54.0703 112.412 53.707C112.916 53.3398 113.623 53.1562 114.533 53.1562H115.588V52.6582C115.588 52.2793 115.475 51.9785 115.248 51.7559C115.021 51.5293 114.688 51.416 114.246 51.416C113.859 51.416 113.535 51.5137 113.273 51.709C113.012 51.9043 112.881 52.1406 112.881 52.418H111.791C111.791 52.1016 111.902 51.7969 112.125 51.5039C112.352 51.207 112.656 50.9727 113.039 50.8008C113.426 50.6289 113.85 50.543 114.311 50.543C115.041 50.543 115.613 50.7266 116.027 51.0938C116.441 51.457 116.656 51.959 116.672 52.5996V55.5176C116.672 56.0996 116.746 56.5625 116.895 56.9062V57H115.758ZM113.959 56.1738C114.299 56.1738 114.621 56.0859 114.926 55.9102C115.23 55.7344 115.451 55.5059 115.588 55.2246V53.9238H114.738C113.41 53.9238 112.746 54.3125 112.746 55.0898C112.746 55.4297 112.859 55.6953 113.086 55.8867C113.312 56.0781 113.604 56.1738 113.959 56.1738ZM118.107 53.7773C118.107 52.8047 118.338 52.0234 118.799 51.4336C119.26 50.8398 119.863 50.543 120.609 50.543C121.352 50.543 121.939 50.7969 122.373 51.3047V48H123.457V57H122.461L122.408 56.3203C121.975 56.8516 121.371 57.1172 120.598 57.1172C119.863 57.1172 119.264 56.8164 118.799 56.2148C118.338 55.6133 118.107 54.8281 118.107 53.8594V53.7773ZM119.191 53.9004C119.191 54.6191 119.34 55.1816 119.637 55.5879C119.934 55.9941 120.344 56.1973 120.867 56.1973C121.555 56.1973 122.057 55.8887 122.373 55.2715V52.3594C122.049 51.7617 121.551 51.4629 120.879 51.4629C120.348 51.4629 119.934 51.668 119.637 52.0781C119.34 52.4883 119.191 53.0957 119.191 53.9004ZM127.775 57.1172C126.916 57.1172 126.217 56.8359 125.678 56.2734C125.139 55.707 124.869 54.9512 124.869 54.0059V53.8066C124.869 53.1777 124.988 52.6172 125.227 52.125C125.469 51.6289 125.805 51.2422 126.234 50.9648C126.668 50.6836 127.137 50.543 127.641 50.543C128.465 50.543 129.105 50.8145 129.562 51.3574C130.02 51.9004 130.248 52.6777 130.248 53.6895V54.1406H125.953C125.969 54.7656 126.15 55.2715 126.498 55.6582C126.85 56.041 127.295 56.2324 127.834 56.2324C128.217 56.2324 128.541 56.1543 128.807 55.998C129.072 55.8418 129.305 55.6348 129.504 55.377L130.166 55.8926C129.635 56.709 128.838 57.1172 127.775 57.1172ZM127.641 51.4336C127.203 51.4336 126.836 51.5938 126.539 51.9141C126.242 52.2305 126.059 52.6758 125.988 53.25H129.164V53.168C129.133 52.6172 128.984 52.1914 128.719 51.8906C128.453 51.5859 128.094 51.4336 127.641 51.4336ZM132.527 50.6602L132.557 51.3633C133.021 50.8164 133.648 50.543 134.438 50.543C135.324 50.543 135.928 50.8828 136.248 51.5625C136.459 51.2578 136.732 51.0117 137.068 50.8242C137.408 50.6367 137.809 50.543 138.27 50.543C139.66 50.543 140.367 51.2793 140.391 52.752V57H139.307V52.8164C139.307 52.3633 139.203 52.0254 138.996 51.8027C138.789 51.5762 138.441 51.4629 137.953 51.4629C137.551 51.4629 137.217 51.584 136.951 51.8262C136.686 52.0645 136.531 52.3867 136.488 52.793V57H135.398V52.8457C135.398 51.9238 134.947 51.4629 134.045 51.4629C133.334 51.4629 132.848 51.7656 132.586 52.3711V57H131.502V50.6602H132.527ZM144.105 55.4121L145.582 50.6602H146.742L144.193 57.9785C143.799 59.0332 143.172 59.5605 142.312 59.5605L142.107 59.543L141.703 59.4668V58.5879L141.996 58.6113C142.363 58.6113 142.648 58.5371 142.852 58.3887C143.059 58.2402 143.229 57.9688 143.361 57.5742L143.602 56.9297L141.34 50.6602H142.523L144.105 55.4121ZM156.428 53.502C156.428 54.0996 156.258 54.5566 155.918 54.873C155.582 55.1855 155.105 55.3418 154.488 55.3418C153.875 55.3418 153.383 55.1367 153.012 54.7266C152.645 54.3125 152.461 53.75 152.461 53.0391V52.3945C152.461 51.707 152.646 51.1582 153.018 50.748C153.393 50.334 153.883 50.127 154.488 50.127C155.113 50.127 155.594 50.2871 155.93 50.6074C156.266 50.9277 156.434 51.3789 156.434 51.9609H155.578C155.578 51.5742 155.484 51.2988 155.297 51.1348C155.113 50.9668 154.844 50.8828 154.488 50.8828C154.121 50.8828 153.832 51.0176 153.621 51.2871C153.41 51.5566 153.305 51.9316 153.305 52.4121V53.0742C153.305 53.543 153.41 53.9121 153.621 54.1816C153.832 54.4512 154.121 54.5859 154.488 54.5859C154.848 54.5859 155.117 54.5039 155.297 54.3398C155.48 54.1758 155.572 53.8965 155.572 53.502H156.428ZM151.078 52.7285C151.078 53.4004 151.234 54.0234 151.547 54.5977C151.859 55.168 152.283 55.6152 152.818 55.9395C153.357 56.2637 153.939 56.4258 154.564 56.4258C155.189 56.4258 155.77 56.2637 156.305 55.9395C156.84 55.6152 157.264 55.168 157.576 54.5977C157.889 54.0234 158.045 53.4004 158.045 52.7285C158.045 52.0645 157.891 51.4492 157.582 50.8828C157.273 50.3164 156.85 49.8711 156.311 49.5469C155.775 49.2188 155.193 49.0547 154.564 49.0547C153.939 49.0547 153.357 49.2168 152.818 49.541C152.279 49.8613 151.854 50.3066 151.541 50.877C151.232 51.4473 151.078 52.0645 151.078 52.7285ZM150.404 52.7285C150.404 51.9395 150.586 51.207 150.949 50.5312C151.316 49.8555 151.822 49.3242 152.467 48.9375C153.115 48.5469 153.814 48.3516 154.564 48.3516C155.314 48.3516 156.012 48.5469 156.656 48.9375C157.301 49.3242 157.805 49.8555 158.168 50.5312C158.535 51.207 158.719 51.9395 158.719 52.7285C158.719 53.498 158.543 54.2188 158.191 54.8906C157.84 55.5625 157.34 56.1035 156.691 56.5137C156.047 56.9199 155.338 57.123 154.564 57.123C153.795 57.123 153.086 56.9219 152.438 56.5195C151.793 56.1133 151.293 55.5742 150.938 54.9023C150.582 54.2305 150.404 53.5059 150.404 52.7285ZM168.58 57H162.99V56.2207L165.943 52.9395C166.381 52.4434 166.682 52.041 166.846 51.7324C167.014 51.4199 167.098 51.0977 167.098 50.7656C167.098 50.3203 166.963 49.9551 166.693 49.6699C166.424 49.3848 166.064 49.2422 165.615 49.2422C165.076 49.2422 164.656 49.3965 164.355 49.7051C164.059 50.0098 163.91 50.4355 163.91 50.9824H162.826C162.826 50.1973 163.078 49.5625 163.582 49.0781C164.09 48.5938 164.768 48.3516 165.615 48.3516C166.408 48.3516 167.035 48.5605 167.496 48.9785C167.957 49.3926 168.188 49.9453 168.188 50.6367C168.188 51.4766 167.652 52.4766 166.582 53.6367L164.297 56.1152H168.58V57ZM175.078 53.3613C175.078 54.6309 174.861 55.5742 174.428 56.1914C173.994 56.8086 173.316 57.1172 172.395 57.1172C171.484 57.1172 170.811 56.8164 170.373 56.2148C169.936 55.6094 169.709 54.707 169.693 53.5078V52.0605C169.693 50.8066 169.91 49.875 170.344 49.2656C170.777 48.6562 171.457 48.3516 172.383 48.3516C173.301 48.3516 173.977 48.6465 174.41 49.2363C174.844 49.8223 175.066 50.7285 175.078 51.9551V53.3613ZM173.994 51.8789C173.994 50.9609 173.865 50.293 173.607 49.875C173.35 49.4531 172.941 49.2422 172.383 49.2422C171.828 49.2422 171.424 49.4512 171.17 49.8691C170.916 50.2871 170.785 50.9297 170.777 51.7969V53.5312C170.777 54.4531 170.91 55.1348 171.176 55.5762C171.445 56.0137 171.852 56.2324 172.395 56.2324C172.93 56.2324 173.326 56.0254 173.584 55.6113C173.846 55.1973 173.982 54.5449 173.994 53.6543V51.8789ZM180.029 57H178.939V49.7754L176.754 50.5781V49.5938L179.859 48.4277H180.029V57ZM187.359 53.25C187.133 53.5195 186.861 53.7363 186.545 53.9004C186.232 54.0645 185.889 54.1465 185.514 54.1465C185.021 54.1465 184.592 54.0254 184.225 53.7832C183.861 53.541 183.58 53.2012 183.381 52.7637C183.182 52.3223 183.082 51.8359 183.082 51.3047C183.082 50.7344 183.189 50.2207 183.404 49.7637C183.623 49.3066 183.932 48.957 184.33 48.7148C184.729 48.4727 185.193 48.3516 185.725 48.3516C186.568 48.3516 187.232 48.668 187.717 49.3008C188.205 49.9297 188.449 50.7891 188.449 51.8789V52.1953C188.449 53.8555 188.121 55.0684 187.465 55.834C186.809 56.5957 185.818 56.9863 184.494 57.0059H184.283V56.0918H184.512C185.406 56.0762 186.094 55.8438 186.574 55.3945C187.055 54.9414 187.316 54.2266 187.359 53.25ZM185.689 53.25C186.053 53.25 186.387 53.1387 186.691 52.916C187 52.6934 187.225 52.418 187.365 52.0898V51.6562C187.365 50.9453 187.211 50.3672 186.902 49.9219C186.594 49.4766 186.203 49.2539 185.73 49.2539C185.254 49.2539 184.871 49.4375 184.582 49.8047C184.293 50.168 184.148 50.6484 184.148 51.2461C184.148 51.8281 184.287 52.3086 184.564 52.6875C184.846 53.0625 185.221 53.25 185.689 53.25Z" fill="white"/>
</svg>
